<?xml version="1.0" standalone="no"?>
<!DOCTYPE svg PUBLIC "-//W3C//DTD SVG 20010904//EN"
 "http://www.w3.org/TR/2001/REC-SVG-20010904/DTD/svg10.dtd">
<svg version="1.0" xmlns="http://www.w3.org/2000/svg"
 width="500.000000pt" height="500.000000pt" viewBox="0 0 500.000000 500.000000"
 preserveAspectRatio="xMidYMid meet">
<metadata>
Created by potrace 1.14, written by Peter Selinger 2001-2017
</metadata>
<g transform="translate(0.000000,500.000000) scale(0.100000,-0.100000)"
fill="#000000" stroke="none">
<path d="M0 2500 l0 -2500 2500 0 2500 0 0 2500 0 2500 -2500 0 -2500 0 0
-2500z m2835 2001 c890 -150 1570 -870 1676 -1775 17 -143 6 -452 -20 -591
-131 -701 -609 -1275 -1275 -1532 -48 -19 -149 -50 -224 -69 -523 -134 -1065
-55 -1535 224 -526 312 -882 844 -971 1453 -21 141 -21 437 0 578 115 792 679
1439 1449 1663 89 26 266 59 380 72 96 10 403 -3 520 -23z"/>
<path d="M2406 4090 c-202 -23 -388 -100 -493 -206 -107 -106 -149 -225 -141
-391 4 -79 10 -102 42 -169 53 -111 180 -235 396 -385 193 -134 240 -178 240
-223 0 -36 -15 -56 -41 -56 -10 0 -62 30 -116 67 -165 113 -252 135 -365 93
-76 -28 -122 -71 -160 -148 -30 -61 -33 -74 -32 -157 1 -108 30 -194 98 -289
153 -215 408 -346 668 -346 116 0 282 24 352 51 192 71 333 221 381 405 19 74
19 210 -1 294 -28 119 -78 205 -184 311 -105 106 -211 180 -432 302 -193 107
-260 151 -306 201 -68 74 -80 166 -28 215 47 44 87 50 286 44 165 -5 190 -3
235 14 72 27 98 69 93 150 -3 51 -9 69 -34 100 -82 102 -248 146 -458 123z"/>
</g>
</svg>
